<?xml version="1.0" standalone="no"?>
<!DOCTYPE svg PUBLIC "-//W3C//DTD SVG 20010904//EN"
 "http://www.w3.org/TR/2001/REC-SVG-20010904/DTD/svg10.dtd">
<svg version="1.0" xmlns="http://www.w3.org/2000/svg"
 width="700.000000pt" height="700.000000pt" viewBox="0 0 700.000000 700.000000"
 preserveAspectRatio="xMidYMid meet">
<metadata>
Created by potrace 1.14, written by Peter Selinger 2001-2017
</metadata>
<g transform="translate(0.000000,700.000000) scale(0.100000,-0.100000)"
fill="#000000" stroke="none">
<path d="M1169 6988 c0 -7 -1 -183 -1 -390 l-1 -377 972 -972 972 -972 -968
-968 -968 -969 -1 -97 c-1 -54 2 -127 7 -163 5 -36 11 -81 13 -100 35 -255
153 -593 285 -810 11 -19 24 -42 28 -50 19 -42 133 -199 213 -295 193 -230
471 -446 757 -586 125 -61 389 -159 469 -173 16 -3 52 -10 79 -16 46 -10 112
-21 210 -35 67 -10 395 -13 480 -5 95 10 178 21 185 25 3 2 23 6 45 9 82 13
260 62 395 111 99 36 332 157 445 233 378 250 665 591 853 1012 102 230 165
485 188 760 4 47 8 1155 8 2463 l1 2377 -2332 0 c-1859 0 -2333 -3 -2334 -12z
m3876 -769 c2 -3 -345 -353 -771 -779 l-774 -774 -775 774 c-630 630 -771 776
-754 780 24 6 3068 4 3074 -1z m9 -1926 c-1 -643 -2 -1170 -3 -1173 0 -2 -264
259 -585 580 l-585 584 587 588 c323 323 587 588 587 588 0 0 -1 -525 -1
-1167z m-777 -1181 l778 -779 -1 -44 c-2 -55 -14 -187 -19 -214 -3 -11 -7 -31
-9 -45 -9 -51 -47 -183 -70 -243 -80 -212 -195 -388 -360 -553 -180 -179 -356
-288 -626 -385 -44 -16 -193 -48 -250 -55 -30 -3 -66 -7 -80 -10 -61 -10 -291
-3 -375 11 -514 87 -934 397 -1160 854 -97 195 -149 400 -159 631 l-3 65 771
772 c424 425 774 773 778 773 3 0 357 -350 785 -778z"/>
</g>
</svg>
